<svg id="Calque_1" data-name="Calque 1" xmlns="http://www.w3.org/2000/svg" viewBox="0 0 788.29201 207.88681">
  <defs>
    <style>
      .cls-1 {
        fill: #d51920;
      }

      .cls-2 {
        fill: #f38d1e;
      }
    </style>
  </defs>
  <title>chu</title>
  <g>
    <path class="cls-1" d="M127.15575,158.9476c-4.913,10.33914-9.78216,20.26065-14.31958,30.33164-1.37256,3.04638-3.04742,4.1647-6.39087,4.0993-3.09185-.06049-4.75915-1.02075-6.08233-3.84891-4.7605-10.17459-9.78546-20.22549-15.06061-31.04092-1.30585,2.40652-.966,4.21875-.97052,5.92172-.0332,12.49921-.29114,25.00735.11255,37.49359.16632,5.14523-2.37036,4.982-6.02435,5.08942-3.9903.11728-5.89539-.47367-5.83362-5.29975.28167-21.99517.20221-43.99649.04834-65.99418-.02649-3.78839.85418-5.09722,4.936-5.2121,4.9635-.13968,7.62451,1.20158,9.71387,6.0385,5.85925,13.56427,12.42029,26.82541,19.21118,41.285,2.78357-5.94482,5.16382-10.97772,7.501-16.03055,4.25848-9.20636,8.48224-18.42877,12.73974-27.63555,1.37189-2.96668,10.12391-5.05843,12.46949-2.99144,1.01532.89468.725,2.15762.72589,3.28413.01941,22.832-.0918,45.665.09027,68.49554.04547,5.707-3.82648,3.61829-6.52167,3.9336-3.044.35611-5.35132.21057-5.25226-4.19913.28437-12.65955.12665-25.3298.06366-37.99545C128.30352,162.96658,128.92657,161.08737,127.15575,158.9476Z"/>
    <path class="cls-1" d="M122.31322,39.08556c-.00073,11.16249-.25262,22.33325.11432,33.48367.16333,4.96292-2.45135,4.86583-5.857,4.71583-3.09528-.13635-6.30017.79758-5.98572-4.55078.47833-8.13542.01611-16.322.17767-24.48234.0614-3.10385-.68127-4.51869-4.13324-4.42032-7.65759.21815-15.32879.196-22.98791.0051-3.11823-.07773-3.99237,1.0355-3.9364,4.02748.159,8.4938-.07239,16.9954.11834,25.48791.07007,3.11907-1.03027,3.93611-4.00439,3.97254-7.79059.09539-7.7898.22865-7.78992-7.71563-.00036-21.32534.19336-42.65367-.13415-63.974C67.81182.23964,70.66772.82877,74.07592.80545c3.30743-.02262,6.09283-.41268,5.80127,4.64091-.45038,7.80436-.00794,15.65621-.17072,23.4832-.06445,3.096.70478,4.51334,4.12647,4.41962q11.23717-.3078,22.48785.003c3.59961.10265,4.53723-1.31,4.451-4.6902-.19965-7.82527.04443-15.66132-.114-23.48849-.06171-3.0464.54565-4.52573,4.06469-4.39616,8.91614.32827,7.49067-.86883,7.56794,7.32007C122.38793,18.42593,122.314,28.75609,122.31322,39.08556Z"/>
    <path class="cls-1" d="M138.9024,29.29459c0-8.15589.10528-16.31386-.05616-24.46655-.05786-2.92351.62653-4.45986,3.84778-4.00455a12.903,12.903,0,0,0,3.48841.00029c3.45538-.46614,4.563.87242,4.52331,4.40552-.17383,15.47756-.15716,30.9589-.03583,46.43751.07581,9.66478,6.2472,15.67653,15.62946,15.6104,9.31323-.06565,15.49469-6.18389,15.56793-15.78774.11676-15.31222.24933-30.63078-.09228-45.93623C181.66643.69065,183.96691.55173,187.46587.82545c3.0539.23887,6.56464-1.29252,6.42133,4.49614-.38733,15.63633.08557,31.29293-.23145,46.93239-.28546,14.08034-10.61761,24.52727-24.44549,25.44794-15.9234,1.06019-28.18323-7.22771-29.90229-21.47846-1.06817-8.85531-.19836-17.94439-.19836-26.92855Z"/>
    <path class="cls-1" d="M55.94909,159.57556c-.00037,7.49362.068,14.988-.015,22.48074-.16265,14.70246-11.08013,25.3219-26.26284,25.64289-15.90738.3363-27.86942-9.81638-28.21927-24.69068-.37973-16.1441.03726-32.30551-.17224-48.45578-.07465-5.75665,3.9013-3.509,6.55252-3.86247,3.10614-.41415,5.28467-.07881,5.21322,4.24761-.25012,15.14965-.168,30.30645-.06814,45.45962.06869,10.42276,5.725,16.45441,15.22152,16.57257,10.09028.12558,15.98765-5.59271,16.09943-16.11816.16095-15.1521.294-30.31333-.08212-45.45769-.13629-5.48773,2.9389-4.59363,6.268-4.8051,3.80982-.242,5.785.44812,5.56995,5.01175C55.67834,143.57637,55.94952,151.58234,55.94909,159.57556Z"/>
    <path class="cls-1" d="M512.34679,38.76225c.001-11.1647.12006-22.33142-.06964-33.49289-.059-3.47419.98352-4.59623,4.50238-4.498,8.49188.237,16.99591-.00609,25.49311.09783,13.2041.16149,22.93121,9.222,23.47283,21.71273.58057,13.39063-7.486,22.91327-21.10144,24.32732a153.87677,153.87677,0,0,1-16.97326.32216c-2.7843-.02031-3.81378,1.007-3.76227,3.82713.1369,7.49611-.06244,14.99861.09161,22.494.05841,2.83942-.937,3.68579-3.7254,3.76683-7.93011.23049-7.92779.35234-7.92877-7.56261Q512.34411,54.25951,512.34679,38.76225ZM523.838,23.89813c0,3.33319.08582,6.66937-.03064,9.99849-.07556,2.15942.74848,2.94951,2.90387,2.90416,4.83094-.10165,9.66608.01781,14.4986-.03628,7.74939-.08672,11.98462-3.8938,12.98773-11.57554.87262-6.68193-3.004-11.7658-10.04028-13.707a27.391,27.391,0,0,0-7.41541-.53848C523.83019,10.88689,523.83007,10.91578,523.838,23.89813Z"/>
    <path class="cls-1" d="M249.9096,77.81464a32.86184,32.86184,0,0,1-20.37689-7.60259c-2.06177-1.693-2.5857-2.80359-.3866-4.99005,3.2572-3.23856,5.42114-5.4893,10.52814-1.67143,6.70288,5.011,15.03888,4.84312,22.97046,2.32885,5.09106-1.61384,7.65857-5.913,7.22546-11.21386-.41589-5.09012-3.18585-8.33669-8.18427-9.34989-4.87823-.98883-9.84924-1.523-14.72314-2.52963-11.37451-2.34918-16.94293-8.47969-17.24664-18.69821-.34931-11.74976,5.18017-19.87673,16.11731-22.66942C256.612-1.33382,266.90765-.204,276.21276,6.60406c2.4231,1.77284,2.2995,2.84121.29437,4.91719-2.96545,3.07017-5.08825,5.30381-9.733,1.72654-4.7832-3.684-11.069-3.34714-16.85889-2.19782a11.05,11.05,0,0,0-8.95459,10.62525c-.20227,5.28228,2.23493,8.64778,8.30713,10.21345,5.126,1.3217,10.468,1.78172,15.64539,2.93355,10.292,2.28966,15.59338,8.29011,16.65039,18.45387.93909,9.02959-3.819,17.26334-12.34534,21.46263C263.99914,77.3092,258.43005,77.91588,249.9096,77.81464Z"/>
    <path class="cls-1" d="M470.03,168.324c.00086-11.15683.09827-22.315-.05987-33.46963-.046-3.24388.94-4.35182,4.25762-4.264,9.15186.24228,18.32428-.11857,27.4665.273,13.03753.55848,22.09491,10.24347,22.05072,23.01182-.045,12.99369-9.39222,22.5502-22.63166,22.98-5.15686.16745-10.32678.15506-15.48407.00034-2.85327-.0856-3.77795,1.02145-3.71942,3.79376.13709,6.49134.043,12.98761.03992,19.48188-.00324,6.80194-.0144,6.56951-6.62994,6.85137-4.03992.17215-5.51-.87872-5.39252-5.19091C470.231,190.64316,470.02911,179.48083,470.03,168.324Zm11.80225-14.78308c0,3.16437.13641,6.3364-.04151,9.49073-.15289,2.71048.62079,3.92465,3.58557,3.795,4.82068-.21066,9.66767.14133,14.48456-.10941,7.76605-.40423,11.61914-5.12347,12.0636-12.94885.47736-8.40448-6.07483-12.54083-12.09326-12.92657-4.31262-.27643-8.6853.2482-12.97919-.148-4.38238-.40434-5.5357,1.36368-5.07428,5.35863A66.07532,66.07532,0,0,1,481.83227,153.54092Z"/>
    <path class="cls-1" d="M267.461,207.75186c-10.11346-.12271-18.071-1.90649-24.92474-7.35974-2.16712-1.72424-3.32886-3.21179-.48359-5.34332a21.53125,21.53125,0,0,0,3.17835-3.16754c1.25482-1.43924,2.23126-1.93122,3.99609-.378,6.08136,5.35209,13.49872,5.97083,21.13745,5.36036,7.24494-.57908,11.75715-4.76206,11.96119-10.91993.22644-6.83639-2.97846-10.08685-11.04615-11.39685a132.18219,132.18219,0,0,1-14.67791-2.7203c-9.20679-2.5925-13.76514-8.36515-14.53321-17.46115-.75506-8.94242,3.45722-17.58565,11.26386-21.13669,11.87964-5.40373,23.61224-4.60179,34.624,2.64915,1.29669.85384,4.58545,2.17095,1.67908,4.29791-2.32556,1.70194-3.03082,7.39354-7.92053,4.06521-5.54676-3.77558-11.66919-4.60741-18.11182-3.58724-5.98785.94815-9.75531,5.10671-9.95715,10.68065-.20954,5.78638,2.40307,9.06741,9.01556,10.59644,5.00684,1.15777,10.16144,1.67449,15.17218,2.81857,9.62775,2.19821,15.05731,8.03406,15.95721,16.73288,1.12946,10.91815-2.89361,18.78406-11.93457,23.04025A32.94107,32.94107,0,0,1,267.461,207.75186Z"/>
    <path class="cls-1" d="M154.98437,168.69943c.17859-6.14068-.488-12.29187.81854-18.42392,2.53113-11.87962,13.108-20.22014,26.17621-20.29924,13.57837-.08218,24.22058,8.008,26.86554,20.15245.60925,2.79758-.092,3.49185-2.80085,3.5-4.65911.014-8.70324.58158-10.87451-5.62936-2.07763-5.943-8.83758-8.26169-15.53595-7.268-6.21362.92181-10.75653,4.77063-11.88726,11.17705a102.35877,102.35877,0,0,0-.19971,32.808c1.05963,7.18808,5.65771,11.33649,12.04419,12.152,7.82373.99908,13.477-1.96024,16.79406-8.791,1.63678-3.3706,9.02149-5.7915,12.0185-3.89813,1.884,1.19028.50921,2.82331.19635,4.03549-4.41089,17.08966-24.836,24.91672-40.68421,15.73075-8.5819-4.97431-12.47149-12.63593-12.89837-22.25391C154.825,177.369,154.98437,173.0307,154.98437,168.69943Z"/>
    <path class="cls-1" d="M.05581,38.92873A108.74391,108.74391,0,0,1,.76568,23.15C2.44436,9.7797,12.87511.56053,27.11736.02013A26.64131,26.64131,0,0,1,54.30865,20.56777c.45391,1.99246.5014,3.19111-2.05542,3.14922-4.77607-.07824-9.38239,1.05338-11.786-5.60276-2.18616-6.054-9.59665-8.51862-16.02707-7.12094a14.25017,14.25017,0,0,0-11.7107,12.61877,113.57083,113.57083,0,0,0-.04528,30.36378c.96322,7.14657,5.32067,11.87549,11.8439,12.97689,7.59964,1.28315,13.73407-1.68019,17.07931-8.25049,1.86686-3.66672,8.23621-5.9063,11.90137-4.28623,1.58746.7017,1.04034,1.77451.83252,2.89846C52.05157,69.69723,40.643,78.1869,26.77318,77.81366,13.19005,77.44815,2.57824,68.48772.89443,56.03459A103.696,103.696,0,0,1,.05581,38.92873Z"/>
    <path class="cls-1" d="M333.6289,56.24873c.00116,5.4966.06512,10.99442-.038,16.48908-.0307,1.63475.89972,4.23457-1.88427,4.33047-2.957.10185-6.94178,1.80107-8.66083-1.20871-1.44672-2.53291-2.16663-1.63594-3.56391-.7708-5.81335,3.59946-12.1242,3.43723-18.3446,1.86973-8.037-2.02529-12.34723-8.59734-11.68109-16.842.639-7.90834,5.90716-13.42862,14.16913-14.18027a138.09305,138.09305,0,0,1,15.4743-.23359c2.90015.063,3.918-1.03978,3.56781-3.83211-.46728-3.7258-.97937-7.52745-5.08954-8.99556-5.35382-1.91232-10.70672-2.10449-15.80078,1.09837-1.24176.78072-1.91357,3.43637-3.92737,1.90935a28.44782,28.44782,0,0,1-5.57708-5.6535c-.79914-1.07645.83343-1.95453,1.63549-2.70507,7.7237-7.22773,26.68549-7.45238,34.48987-.33294,3.80219,3.46855,5.142,8.07212,5.21277,13.06767C333.68633,45.58783,333.6278,50.91869,333.6289,56.24873Zm-26.66565-2.64764c-6.00128,2.16177-7.05823,3.72616-6.09131,9.42825.70874,4.17916,4.01135,5.48221,7.51495,5.66846,10.15375.53978,14.48566-3.42288,14.14209-14.98691C317.35174,52.06862,312.16021,52.4492,306.96325,53.60109Z"/>
    <path class="cls-1" d="M374.348,49.80031c.00135-7.6536-.04333-15.30768.04041-22.96036.01605-1.46738-.75861-3.85905,1.80249-3.8499,2.841.01015,7.37817-1.69385,8.21222.93877,1.42187,4.48759,2.81537,2.04786,4.61224,1.05189,8.85333-4.90722,19.06635-3.51238,25.08411,3.363,3.5213,4.02313,4.3634,8.95383,4.45965,13.95871.19837,10.31192-.13305,20.63574.1529,30.94359.14349,5.17436-3.2522,3.87729-5.99768,3.996-2.8346.12255-5.58423.58292-5.45581-4.03208.27758-9.97428.29754-19.97083-.04047-29.94257-.29663-8.74979-6.6814-13.19228-14.55066-10.595-5.15869,1.70264-7.16772,5.73967-7.24854,10.77634-.15472,9.64745-.34588,19.30814.0066,28.944.17181,4.69567-2.016,4.90316-5.66077,4.97714-3.87659.07864-5.73621-.63935-5.51764-5.1128C374.61193,64.78772,374.34661,57.28752,374.348,49.80031Z"/>
    <path class="cls-1" d="M770.342,53.26327c-4.49963.00267-9.01013.199-13.4956-.05333-4.36121-.24536-4.64783,1.94681-3.76917,5.2577,2.45972,9.26831,13.50781,12.93727,22.39026,7.41894,3.92468-2.43831,7.16455-1.618,9.80164,2.15909,1.1632,1.66615.20849,2.41716-.80408,3.28258-8.56982,7.32411-18.41736,8.22-28.61768,4.81207-9.36889-3.13016-12.91687-10.95958-13.9071-20.11641-.6825-6.30908-.63428-12.62347,1.52417-18.7429,3.49145-9.89872,11.4541-15.54241,21.64465-15.29253,10.44373.25609,18.39136,6.3992,21.314,16.47465.04638.15972.10144.317.14441.47759,3.48352,13.03557,2.52136,14.3199-10.726,14.31988Q773.09185,53.2606,770.342,53.26327Zm-5.87414-7.49459c3.16357,0,6.32922-.07262,9.48987.02551,2.106.06538,2.96813-.6577,2.86352-2.87758a12.48486,12.48486,0,0,0-11.56787-11.66522A12.033,12.033,0,0,0,752.78136,41.147c-.70471,3.34547-.23816,5.07695,3.69947,4.67828C759.11791,45.55826,761.80382,45.77447,764.46789,45.76868Z"/>
    <path class="cls-1" d="M332.0299,179.37448c.00079-7.49124-.04505-14.983.03692-22.47336.01783-1.63-.81335-4.24566,2.10254-4.10391,2.90528.14117,7.00538-1.97549,8.45331,1.48224,1.26117,3.01147,1.87775,2.10135,3.59693.97729a20.26475,20.26475,0,0,1,13.79248-3.24371c10.05468,1.1756,16.04828,7.919,16.24975,18.73953.19818,10.65058-.16076,21.31366.14759,31.959.129,4.4544-2.278,4.32611-5.28742,4.19922-2.852-.12024-5.976.931-5.87109-4.11219.21765-10.47509-.00415-20.96481-.28449-31.44207a9.181,9.181,0,0,0-6.30536-8.75834,11.23859,11.23859,0,0,0-11.32428,1.63218c-3.41864,2.54571-4.00512,6.33911-4.01324,10.27411-.01892,9.15594-.34082,18.32864.11731,27.46154.263,5.24216-2.51788,4.85413-6.07092,5.026-3.96662.19193-5.65314-.75738-5.4405-5.14862C332.29137,194.36969,332.02917,186.86575,332.0299,179.37448Z"/>
    <path class="cls-1" d="M628.38781,53.26565c-4.49976,0-9.00952.18725-13.49634-.05384-4.29346-.2307-4.69849,1.79472-3.75012,5.21173,2.64026,9.51416,13.70532,13.03114,22.81006,7.28494,1.30334-.82265,2.32019-3.14827,4.00329-2.185,2.11377,1.20981,3.827,3.17309,5.57947,4.94345,1.33093,1.34451-.21033,2.14679-.9508,2.79858-7.83558,6.89684-16.99781,7.903-26.70069,5.51294-8.70862-2.14509-13.4176-8.28036-15.19128-16.75644-1.6615-7.93979-1.72888-15.89943,1.204-23.61429,3.53784-9.30651,11.53051-14.66292,21.22351-14.41925,10.31494.25934,18.20373,6.17133,21.1914,15.954a40.69279,40.69279,0,0,1,1.509,11.84257c.01025,2.5875-.83386,3.57358-3.43323,3.50148-4.66284-.12933-9.33191-.03646-13.99829-.03646Zm-6.03687-7.49481c3.16175,0,6.33069-.13,9.48316.04128,2.5072.13623,3.13977-.94748,3.007-3.23166a12.60057,12.60057,0,0,0-11.72071-11.53821c-5.80005-.28033-11.16443,4.35318-12.34851,10.16525-.76587,3.75862.24622,5.09053,4.09741,4.6241A63.68685,63.68685,0,0,1,622.35094,45.77084Z"/>
    <path class="cls-1" d="M585.86315,182.89743c-4.32471.00067-8.6665.24011-12.96936-.06674-4.2998-.30667-4.70923,1.73767-3.89453,5.11441,2.33874,9.69464,13.90417,13.44363,22.99463,7.42251a6.78812,6.78812,0,0,1,9.63244,2.99109c.69617,1.57382-.42822,2.16925-1.2434,2.84958-8.58912,7.16815-18.34473,8.28693-28.56726,4.68775-9.73267-3.42673-13.21216-11.50232-13.94086-21.06818-.44263-5.81116-.46845-11.63641,1.36694-17.29,3.18183-9.80121,11.14618-15.66266,21.29767-15.67285,10.563-.01059,18.53491,5.8063,21.687,15.82278.09973.31714.23328.62464.318.94535,3.46216,13.09674,2.58667,14.26373-10.69311,14.2637Q588.85718,182.89679,585.86315,182.89743Zm-5.17383-7.24585c2.98389,0,5.97339-.11462,8.94983.03326,2.79627.13892,3.39075-1.19671,3.09583-3.65115a12.38749,12.38749,0,0,0-11.01136-11.08755,12.18254,12.18254,0,0,0-12.807,8.8692c-1.41345,4.99576-.81714,5.80981,4.313,5.84091C575.71606,175.67132,578.20275,175.65884,580.68932,175.65158Z"/>
    <path class="cls-1" d="M675.453,182.89917c-4.66.00238-9.32312.10721-13.97888-.03519-3.00268-.09186-3.62011.98535-3.10913,3.88761,1.8794,10.67767,13.79151,15.05462,23.4281,8.5321,1.14771-.77685,2.06116-2.98727,3.60218-1.98163a28.68653,28.68653,0,0,1,5.78417,5.41648c.81775.94833-.55529,1.72192-1.21618,2.32455-7.44043,6.78433-16.20471,7.79645-25.63819,5.77374-8.54553-1.8323-13.52185-7.354-15.80224-15.52328a40.84651,40.84651,0,0,1,.02661-22.64707c3.23218-11.22808,11.62427-17.30429,22.923-16.73062,11.04615.56085,19.08741,7.79358,21.171,19.04236,2.21131,11.9386,2.21131,11.9386-9.70117,11.93857Q679.19756,182.89679,675.453,182.89917Zm-5.58911-7.57611c2.98267,0,5.96936-.097,8.94666.02853,2.72815.11505,3.43335-1.13827,3.12659-3.63849a11.83457,11.83457,0,0,0-10.43091-10.36035,11.54938,11.54938,0,0,0-12.66407,8.14594c-1.61218,5.15222-1.17822,5.78378,4.06214,5.83243C665.224,175.35266,667.54406,175.33478,669.86388,175.32306Z"/>
    <path class="cls-1" d="M434.34569,49.75644c-.00061-3.83057-.038-7.66162.01087-11.49156.04132-3.23447.47485-6.27706-4.54755-6.2831-2.92346-.00351-1.48077-3.12643-1.73578-4.88821-.25958-1.79361.07654-3.49494,2.50971-3.214,3.30542.38169,3.95038-1.40285,3.78357-4.17412-.12989-2.15717.23663-4.36643-.07263-6.48613-.718-4.92125,1.27825-6.2595,6.0617-6.08026,3.89038.14578,5.56232,1.17522,4.975,5.11666a17.0715,17.0715,0,0,0-.01672,2.49557c.00311,8.15808-.01239,8.33467,7.82946,9.02545,3.317.29218,2.58472,2.37473,2.57807,4.20394-.00666,1.82492.75549,3.93132-2.50641,4.32263-7.91907.95-7.90271,1.10721-7.90021,9.1288.00195,6.32872.02173,12.65747.01312,18.98617-.00653,4.78574,1.96192,7.7779,7.13819,7.39167,4.3598-.32532,3.1336,2.7348,3.28125,4.98408.15832,2.4128.30682,4.38635-3.349,4.55257-11.973.54436-18.0069-4.98557-18.05023-17.0977C434.33562,56.75145,434.3463,53.25394,434.34569,49.75644Z"/>
    <path class="cls-1" d="M617.02868,178.87476c-.00025-3.6626.02356-7.32541-.00769-10.98774-.02588-3.02493.98864-6.50073-4.371-6.19006-2.77942.1611-1.55567-2.76474-1.68433-4.35156-.12183-1.50232-.61389-3.82312,2.03894-3.59076,4.03992.35379,4.21948-1.98609,4.04761-4.94377-.12525-2.157.23315-4.3646-.07605-6.48366-.67237-4.60663,1.39355-5.43715,5.60364-5.51285,4.60437-.08279,6.43359,1.29,5.76306,5.87077a27.78493,27.78493,0,0,0-.02881,3.99128c.001,7.81013-.108,7.20985,6.51575,6.932,3.022-.12671,4.07653.82113,4.02343,3.9396-.05114,3.00922-.54944,4.94211-4.059,4.3367-5.3164-.91714-6.89624,1.34055-6.5863,6.53891.42529,7.1334.05188,14.31168.12659,21.46961.06274,6.01208,1.15014,7.43375,7.23632,7.65887,4.3628.16138,2.98316,2.99771,3.16565,5.19373.18726,2.25146.2096,4.03406-3.13964,4.23233-12.26587.72607-18.48731-4.8439-18.56458-17.11566C617.00939,186.20007,617.02892,182.53735,617.02868,178.87476Z"/>
    <path class="cls-1" d="M392.02245,178.51413c-.00677-4.49423-.03528-8.98874.00659-13.48258.01783-1.91632-.42022-3.372-2.731-3.11029-3.11731.353-3.49488-1.39624-3.44574-3.92941.04864-2.50964-.07416-4.77716,3.51269-4.36682,2.35956.26993,2.679-1.30466,2.6629-3.16986-.03021-3.49515.06165-6.992-.007-10.486-.041-2.08545.79034-2.83214,2.91217-3.0347,8.02874-.76648,8.37725-.52841,8.38086,7.59439a21.04426,21.04426,0,0,1-.02021,2.99321c-.6654,4.60071.81665,7.008,5.88788,6.15336,3.22363-.54328,4.66358.48849,4.71771,4.21292.05945,4.09173-2.04455,4.4248-4.94323,3.9722-4.85755-.7584-5.89771,1.5346-5.72181,5.902.29438,7.31217.03223,14.64514.0979,21.96854.055,6.13174,1.1673,7.66452,7.07868,7.81583,4.72052.12078,3.02643,3.2499,3.33868,5.53866.36066,2.64371-.52325,3.76767-3.494,3.88477-12.35327.48694-18.14843-4.93506-18.223-17.47034C392.01061,185.83823,392.02917,182.17612,392.02245,178.51413Z"/>
    <path class="cls-1" d="M717.05505,156.6619c3.07934-1.61146,5.7677-3.58036,9.09167-4.262a19.64911,19.64911,0,0,1,13.99341,1.86267c2.80493,1.55625,4.17529,3.19019.83887,5.70456a24.11227,24.11227,0,0,0-3.51978,3.5224c-1.324,1.52155-2.30579,1.4335-4.1355.35239-8.09558-4.78333-16.41125-.06073-16.62634,9.46432-.22156,9.80509-.30811,19.62735.033,29.42517.17615,5.05616-2.94434,4.09446-5.8125,4.16721-3.02466.07672-5.79334.6477-5.68445-4.29547.3219-14.62473.02832-29.26218.21057-43.89173.02527-2.03109-1.84741-5.75875,2.217-5.8796C711.05443,152.73083,715.90966,150.33868,717.05505,156.6619Z"/>
    <path class="cls-1" d="M669.0736,27.56372c6.90137-5.28934,14.00659-7.24146,21.7854-3.88486,1.94714.8402,5.46509,1.41712,4.17566,4.75618-1.60107,4.1465-7.02637,6.67469-9.73315,5.1628-6.24329-3.48723-13.49024-.663-15.52222,6.21283A23.54632,23.54632,0,0,0,668.986,46.198c-.08423,9.14612-.19873,18.29735.0243,27.43875.12219,5.00865-3.34412,3.49431-5.80616,3.56009-2.39111.06392-5.42541,1.14628-5.37146-3.46549.18506-15.797.13843-31.598.01306-47.39616-.02392-2.99506,1.18152-3.82843,3.82886-3.48573C664.78454,23.25207,669.44372,20.80489,669.0736,27.56372Z"/>
    <path class="cls-1" d="M713.9945,27.60315c7.58838-5.844,15.137-7.34174,23.31738-3.22749,3.075,1.54657,4.42273,3.23661.9939,6.12387-3.02942,2.551-4.63086,5.84254-10.0553,2.50669-6.53943-4.02168-14.11475,2.36725-14.26086,11.2026-.157,9.48541-.35828,18.99043.08679,28.45739.24426,5.19609-2.7052,4.532-5.90943,4.63483-3.33862.10716-5.49426-.008-5.39111-4.61769.33508-14.97353.08533-29.95949.17346-44.94.0116-1.98-1.26538-5.39316,2.809-4.797C708.80834,23.39261,714.007,20.04768,713.9945,27.60315Z"/>
    <path class="cls-1" d="M587.30981,50.28476c-.00037,7.657-.2273,15.323.07885,22.96776.2074,5.1782-3.23791,3.895-5.99121,3.98758-2.81506.09468-5.53515.58784-5.46069-4.04425q.37317-23.21461-.00159-46.43813c-.07934-4.77719,2.798-3.952,5.50867-3.88606,2.7334.0665,6.166-1.25958,5.95044,3.94629C587.07091,34.628,587.31017,42.46133,587.30981,50.28476Z"/>
    <path class="cls-1" d="M348.03039,50.28015c.00067-7.82346.11328-15.64934-.05646-23.46912-.06494-2.989.801-4.03276,3.91858-4.04034,7.41687-.018,7.41968-.18387,7.42059,6.98618.00183,14.31524-.22192,28.63575.11707,42.943.122,5.14885-2.77326,4.53953-5.97773,4.59178-3.22265.05255-5.79235.18095-5.53216-4.54585C348.33135,65.27786,348.02965,57.77069,348.03039,50.28015Z"/>
    <path class="cls-1" d="M534.0321,179.62854c-.00074-7.66611.23077-15.34161-.081-22.995-.21271-5.222,3.27533-3.83239,5.99988-3.95883,2.82446-.13107,5.52576-.63028,5.452,4.00315-.24659,15.49493-.2193,30.99777-.024,46.49414.06177,4.90591-3.15894,3.671-5.72571,3.68179-2.59265.011-5.86114,1.16348-5.6925-3.72943C534.23034,195.30084,534.03289,187.4613,534.0321,179.62854Z"/>
    <path class="cls-1" d="M306.03393,179.78528c-.00013-7.8158.18689-15.63779-.07245-23.445-.148-4.4537,2.70337-3.75964,5.26214-3.64825,2.52155.10974,5.84009-1.301,5.7854,3.6289q-.26037,23.44446.0019,46.89325c.056,4.9169-3.23566,3.55246-5.76947,3.64667-2.54224.09448-5.42566.841-5.27887-3.63062C306.2188,195.42291,306.034,187.60107,306.03393,179.78528Z"/>
    <path class="cls-1" d="M481.51769,52.5739q-4.74125.00546-9.48248.003c-5.7652-.00641-7.90412-3.14823-6.10272-8.68225.60089-1.84586,1.96191-1.55853,3.19171-1.56542,8.31762-.04651,16.637.06531,24.953-.06,4.271-.06435,3.17249,2.95654,3.18555,5.20435.01318,2.27942.98236,5.30992-3.26972,5.134C489.84118,52.43585,485.67663,52.57025,481.51769,52.5739Z"/>
    <path class="cls-1" d="M439.47069,171.97794c3.666-.002,7.36731.31875,10.98914-.08121,4.78375-.52826,4.86133,2.08447,4.955,5.66855.10028,3.842-.96991,5.27414-5.03308,5.10379-7.6518-.3208-15.332-.27-22.98969-.03208-4.65558.14472-3.40961-3.01083-3.44965-5.40274-.04113-2.45926-1.05413-5.61773,3.53437-5.30984C431.458,172.19153,435.47149,171.98,439.47069,171.97794Z"/>
    <path class="cls-1" d="M581.90282.86914c5.52149-1.63491,5.58619,1.58373,5.886,5.8315.38562,5.46351-2.31958,5.47727-6.45654,5.713-4.94471.28176-5.49073-1.81907-5.5752-5.99009C575.661,1.67521,576.92419-.49954,581.90282.86914Z"/>
    <path class="cls-1" d="M359.41527,6.59153c1.7085,5.75976-1.87,5.47361-5.9555,5.81118-5.36115.443-5.50281-2.11592-5.73279-6.34369-.27515-5.05814,1.95245-5.4572,6.02918-5.5264C358.34087.45481,360.90362,1.41145,359.41527,6.59153Z"/>
    <path class="cls-1" d="M317.3864,136.18588c1.74366,5.96411-1.96044,5.51866-6.00207,5.85053-5.31995.43686-5.62018-2.026-5.85358-6.354-.28076-5.20758,2.16584-5.42783,6.1623-5.49663C316.2401,130.10754,318.9948,130.97307,317.3864,136.18588Z"/>
    <path class="cls-1" d="M540.42119,130.293c4.36579-1.189,5.19861,1.30263,5.385,5.8934.20887,5.14628-1.83191,5.70775-6.26721,5.89518-5.22131.22068-6.00128-1.88538-5.71924-6.306C534.16869,130.30788,533.91021,130.29138,540.42119,130.293Z"/>
    <path class="cls-2" d="M322.529,53.71089q-7.78353-.05493-15.5664-.10985C312.16021,52.4492,317.35174,52.06862,322.529,53.71089Z"/>
  </g>
</svg>
