<svg id="Calque_1" data-name="Calque 1" xmlns="http://www.w3.org/2000/svg" viewBox="0 0 330.30133 24.71533">
  <defs>
    <style>
      .cls-1 {
        fill: #fed136;
      }
    </style>
  </defs>
  <title>logo</title>
  <g>
    <path class="cls-1" d="M.32959,0H16.54785q.49438,0,.49414.65869V4.52832a.65465.65465,0,0,1-.74072.74072H7.1626l-.24707.24707v4.4458a.60882.60882,0,0,0,.24707.49414h7.08008a.55169.55169,0,0,1,.32959.57618v4.28125a.50934.50934,0,0,1-.57618.57617h-6.916l-.16455.16455v8.39746l-.24707.24707H.32959q-.26367,0-.32959-1.15234L.08252.74121,0,.65869v-.082Q.14795.00024.32959,0Z"/>
    <path class="cls-1" d="M19.84131,0h5.269q.32886.11573.3291.74121V24.45166l-.24707.24707H19.84131c-.21973-.07715-.32959-.32324-.32959-.74121V.74121Q19.51172.11572,19.84131,0Z"/>
    <path class="cls-1" d="M28.23877,0H44.45752q.49365,0,.49414.65869V4.52832a.6548.6548,0,0,1-.74121.74072H35.07178l-.24707.24707v4.4458a.60882.60882,0,0,0,.24707.49414h7.08008a.55138.55138,0,0,1,.3291.57618v4.28125a.509.509,0,0,1-.57617.57617H34.98926l-.16455.16455v8.39746l-.24707.24707H28.23877q-.26367,0-.32959-1.15234L27.9917.74121,27.90918.65869v-.082Q28.05713.00024,28.23877,0Z"/>
    <path class="cls-1" d="M50.38525,0h8.64454q.77343,0,.98828,2.71729l4.28027,21.65234a.44058.44058,0,0,1-.49316.3291h-5.1045q-.65917,0-.82324-1.97559A15.7272,15.7272,0,0,0,57.0542,18.853H52.36084q-.312,0-1.07031,5.5166l-.3291.3291H45.36279l-.24609-.24707q2.38623-12.06885,3.54-19.1001l1.07031-5.022A.98878.98878,0,0,1,50.38525,0Zm2.14063,14.24316.082.082h3.12891l.16406-.16456L54.3374,5.43408l-.083-.08252h-.082q-.3794,0-.75781,2.88135A53.37051,53.37051,0,0,0,52.52588,14.24316Z"/>
    <path class="cls-1" d="M76.97705,0h8.64453q.77345,0,.98828,2.71729l4.28028,21.65234a.44059.44059,0,0,1-.49317.3291H85.29248q-.65917,0-.82324-1.97559A15.72774,15.72774,0,0,0,83.646,18.853H78.95264q-.312,0-1.07032,5.5166l-.3291.3291H71.95459l-.24609-.24707q2.38623-12.06885,3.54-19.1001l1.07031-5.022A.98878.98878,0,0,1,76.97705,0Zm2.14063,14.24316.082.082h3.1289l.16407-.16456L80.9292,5.43408l-.083-.08252h-.082q-.3794,0-.75781,2.88135A53.36794,53.36794,0,0,0,79.11768,14.24316Z"/>
    <path class="cls-1" d="M97.394,0h11.11524l.24609.24707V4.1167q0,.65844-.82324.65869H100.688A1.23536,1.23536,0,0,0,99.37061,5.8457V18.853a2.32022,2.32022,0,0,0,.82324.90625h2.88086a.43663.43663,0,0,0,.49414-.49414V11.19678q0-.148.49414-.41162l.082.08252h4.77539a.58249.58249,0,0,1,.65918.65869V23.95752c0,.418-.11035.66406-.33008.74121H98.38232A6.26509,6.26509,0,0,1,94.26611,22.147a5.966,5.966,0,0,1-.90527-2.63476V4.93994a6.0521,6.0521,0,0,1,1.81055-3.70459A7.49727,7.49727,0,0,1,97.394,0Z"/>
    <path class="cls-1" d="M117.31787,0h8.64453q.77345,0,.98828,2.71729L131.231,24.36963a.44059.44059,0,0,1-.49317.3291H125.6333q-.65918,0-.82324-1.97559a15.72774,15.72774,0,0,0-.82324-3.87011h-4.69336q-.312,0-1.07032,5.5166l-.3291.3291h-5.59863l-.24609-.24707q2.38623-12.06885,3.54-19.1001l1.07031-5.022A.98878.98878,0,0,1,117.31787,0Zm2.14063,14.24316.082.082h3.1289l.16407-.16456L121.27,5.43408l-.083-.08252h-.082q-.37939,0-.75781,2.88135A53.36794,53.36794,0,0,0,119.4585,14.24316Z"/>
    <path class="cls-1" d="M134.03076,0h5.26856q.32958.11573.3291.74121V24.45166l-.2461.24707h-5.35156c-.21972-.07715-.3291-.32324-.3291-.74121V.74121Q133.70166.11572,134.03076,0Z"/>
    <path class="cls-1" d="M142.34521,0h7.9043q.46.36255,2.22266,5.92773l2.71679,8.06836h.24708L155.41943.64258q.148-.64233.34571-.64258h5.59863l.24707.24707V24.45166l-.24707.24707h-7.65723q-.52587,0-.74023-1.15234L148.603,10.62061H148.356V24.04053q0,.6577-.49414.6582h-5.51661l-.24609-.24707V.24707Z"/>
    <path class="cls-1" d="M168.44385,0h10.53808l.24707.24707V4.1167a.552.552,0,0,1-.33007.57617h-7.49122q-1.31835.37939-1.31738,1.39942v1.729q0,1.36743,2.46973,1.729a41.81021,41.81021,0,0,1,5.18652,1.23487,4.77119,4.77119,0,0,1,2.22266,4.4458v3.458a5.58677,5.58677,0,0,1-3.54,5.59766l-2.05762.41211h-9.30371a.86294.86294,0,0,1-.74121-.49414V20.08838l.49414-.41211.57617.083h7.24512q1.31689-.26367,1.31738-1.31739V16.38428a1.43776,1.43776,0,0,0-1.07031-1.48242Q165.48,13.33741,165.48,12.67871a4.72779,4.72779,0,0,1-1.39941-3.78711v-3.54a5.30609,5.30609,0,0,1,3.375-5.022Z"/>
    <path class="cls-1" d="M183.01611,0h15.55957l.24707.24707-.0166,3.86963q-.082.65844-.57617.65869H194.2124a.509.509,0,0,0-.57617.57617v18.689q0,.6577-.49414.6582h-4.93945q-.57716,0-.57618-.82324V5.10449l-.46093-.3291h-3.90235c-.5498-.0332-.82324-.15918-.82324-.37891V.57666Q182.53809.00024,183.01611,0Z"/>
    <path class="cls-1" d="M211.84717,0h9.30273q.74121,0,.74121.90576v3.458a.80015.80015,0,0,1-.90527.90527h-7.73926q-.64159-.03222-.6582.65869l-.0166,12.77784a.9047.9047,0,0,0,.82324.88867h7.75488q.74121,0,.74121.57617v3.87012c0,.43847-.16406.6582-.49414.6582H210.85889a6.27133,6.27133,0,0,1-3.0459-1.72852,5.99674,5.99674,0,0,1-1.56445-4.19921l-.01563-13.00782.01563-.41162A5.89777,5.89777,0,0,1,207.813,1.729,5.71537,5.71537,0,0,1,211.6001.08252Z"/>
    <path class="cls-1" d="M228.395,0h8.15137a5.7402,5.7402,0,0,1,2.88086,1.729,5.42905,5.42905,0,0,1,1.23535,2.79932l.082,2.22266V17.28955q0,4.3623-.6582,4.36328a6.21818,6.21818,0,0,1-2.63477,2.7168l-.90527.3291H228.395a6.43386,6.43386,0,0,1-3.62207-3.0459,5.669,5.669,0,0,1-.41113-2.46972V5.43408A5.279,5.279,0,0,1,228.395,0Zm1.97656,5.8457V18.19482q0,1.56446.98731,1.56446,3.12889.16405,3.1289-.82324l.082-.74122V6.09229q.082-1.23487-.9873-1.39942h-2.46973A.94761.94761,0,0,0,230.37158,5.8457Z"/>
    <path class="cls-1" d="M243.46143,0h5.10449q.36181,0,1.56445,7.08057L252.271,17.70068l.082.082h.165q.32958,0,.98828-3.95117,2.05811-11.11449,2.71679-13.749L256.55225,0h4.85742l.16406.165v.082l-4.36328,21.15869q-.6753,3.293-.98731,3.293H248.731q-.3794,0-1.39942-5.51562Q244.53223,6.84986,243.21533.32959V.24707Z"/>
    <path class="cls-1" d="M264.37354,0h5.26855q.3296.11573.3291.74121V24.45166l-.24609.24707h-5.35156c-.21973-.07715-.32911-.32324-.32911-.74121V.74121Q264.04443.11572,264.37354,0Z"/>
    <path class="cls-1" d="M284.13232,0a6.26612,6.26612,0,0,1,3.67188,1.61377,5.35467,5.35467,0,0,1,.77344,2.99707l.083,14.73633a6.172,6.172,0,0,1-1.56445,3.54,5.7832,5.7832,0,0,1-3.78711,1.81152h-10.374c-.16406,0-.3291-.21973-.49317-.6582V.90576q0-.90526.57618-.90576Zm-5.8457,4.52832v15.313c0,.165.10938.24707.3291.24707h2.55274q1.58057,0,1.64648-1.15234V5.68066q-.01611-1.251-2.05859-1.15234Z"/>
    <path class="cls-1" d="M305.8667,0h5.8291V24.69873l-2.96387.0166H305.8667V5.69727q-1.74609,0-3.50684.0166V1.18555Q304.13819.593,305.8667,0Z"/>
    <path class="cls-1" d="M326.18506.08252q4.13232.42846,4.11621,5.84521V19.1001q-.19776,5.59863-4.28125,5.59863H315.812V20.33545h7.32715q1.21728,0,1.23438-1.05371v-3.063H319.023q-4.44581.0498-4.85742-3.54V5.269q.27978-4.77465,4.11621-5.18652Zm-6.00977,5.68066v4.61036q0,.988,1.15235,1.23486h2.96386l.24707-.24707V5.59863q.01613-.988-1.07031-.90576h-2.38769Q320.10938,4.70972,320.17529,5.76318Z"/>
  </g>
</svg>
